<svg xmlns="http://www.w3.org/2000/svg" xmlns:xlink="http://www.w3.org/1999/xlink" width="1920" zoomAndPan="magnify" viewBox="0 0 1440 809.999993" height="1080" preserveAspectRatio="xMidYMid meet" version="1.0"><rect x="-144" width="1728" fill="#ffffff" y="-80.999999" height="971.999992" fill-opacity="1"/><rect x="-144" width="1728" fill="#ffffff" y="-80.999999" height="971.999992" fill-opacity="1"/><path fill="#416b58" d="M 714.507812 542.074219 C 715.234375 542.382812 715.933594 542.699219 716.613281 543.003906 L 726.75 543.003906 C 727.171875 542.355469 727.5625 541.542969 727.917969 540.527344 C 729.285156 536.332031 729.296875 531.804688 727.722656 527.4375 C 724.445312 518.34375 714.082031 514.683594 707.097656 508.976562 C 700.242188 503.640625 694.480469 496.421875 691.957031 488.285156 C 689.203125 480.644531 689.304688 456.191406 689.304688 456.191406 C 677.378906 468.71875 673.972656 494.613281 679.613281 510.257812 C 685.910156 527.726562 697.582031 535.023438 714.507812 542.074219 " fill-opacity="1" fill-rule="nonzero"/><path fill="#9ad87d" d="M 719.90625 543.003906 L 724.996094 543.003906 L 725.363281 542.359375 C 711.496094 527.25 720.414062 513.589844 724.679688 499.550781 C 728.894531 483.574219 725.65625 463.542969 708.101562 457.820312 C 710.4375 464.792969 711.167969 471.277344 709.792969 477.890625 C 708.089844 486.449219 701.328125 493.980469 699.226562 502.160156 C 696.382812 511.523438 697.746094 519.226562 702.988281 527.210938 C 707.648438 534.738281 713.636719 539.78125 719.90625 543.003906 " fill-opacity="1" fill-rule="nonzero"/><path fill="#519d6c" d="M 720.148438 543.003906 L 737.042969 543.003906 C 737.511719 542.292969 738.082031 541.355469 739.03125 540.089844 C 743.28125 533.515625 751.785156 533.515625 756.039062 527.328125 C 759.132812 522.6875 758.355469 517.269531 757.585938 512.242188 C 755.652344 499.09375 759.515625 489.8125 765.703125 478.597656 L 765.703125 478.210938 C 756.425781 477.820312 741.734375 485.558594 739.800781 494.839844 C 738.253906 504.507812 740.960938 511.085938 731.683594 518.433594 C 724.726562 523.847656 714.675781 528.101562 718.152344 539.316406 C 718.636719 540.96875 719.316406 542.152344 720.148438 543.003906 " fill-opacity="1" fill-rule="nonzero"/><path fill="#9ad87d" d="M 829.289062 543.164062 C 841.125 549.796875 909.117188 563.980469 854.652344 563.414062 C 636.785156 561.148438 530.667969 567 578.421875 555.007812 C 623.253906 543.746094 611.386719 542.195312 605.453125 535.164062 C 595.996094 523.949219 656.039062 525.066406 687.027344 532 C 721.113281 539.628906 732.160156 539.027344 753.789062 534.171875 C 794.132812 525.117188 810.777344 532.792969 829.289062 543.164062 " fill-opacity="1" fill-rule="nonzero"/><path fill="#416b58" d="M 843.097656 550.15625 C 831.683594 537.71875 839.023438 526.46875 842.539062 514.90625 C 846.011719 501.75 843.34375 485.253906 828.886719 480.542969 C 830.8125 486.285156 831.414062 491.625 830.28125 497.070312 C 828.878906 504.117188 823.3125 510.320312 821.578125 517.058594 C 819.238281 524.765625 820.363281 531.109375 824.675781 537.683594 C 829.332031 545.203125 835.605469 549.71875 841.9375 552.195312 L 843.097656 550.15625 " fill-opacity="1" fill-rule="nonzero"/><path fill="#519d6c" d="M 875.46875 497.679688 C 867.828125 497.359375 855.734375 503.730469 854.144531 511.371094 C 852.871094 519.335938 855.097656 524.75 847.457031 530.800781 C 841.726562 535.257812 833.453125 538.761719 836.316406 547.996094 C 837.910156 553.414062 842.046875 552.777344 846.503906 552.777344 C 851.917969 552.777344 850.644531 552.457031 853.503906 548.636719 C 857.007812 543.222656 864.011719 543.222656 867.515625 538.125 C 870.058594 534.304688 869.425781 529.84375 868.789062 525.703125 C 867.195312 514.875 870.378906 507.234375 875.46875 497.996094 " fill-opacity="1" fill-rule="nonzero"/><path fill="#416b58" d="M 596.261719 552.085938 C 584.84375 539.644531 592.1875 528.398438 595.699219 516.835938 C 599.171875 503.679688 596.503906 487.183594 582.046875 482.472656 C 583.972656 488.21875 584.570312 493.558594 583.441406 499.003906 C 582.039062 506.050781 576.472656 512.25 574.738281 518.988281 C 572.398438 526.695312 573.523438 533.039062 577.835938 539.613281 C 582.496094 547.136719 588.765625 551.648438 595.101562 554.125 L 596.261719 552.085938 " fill-opacity="1" fill-rule="nonzero"/><path fill="#519d6c" d="M 628.632812 499.609375 C 620.992188 499.289062 608.894531 505.660156 607.304688 513.304688 C 606.03125 521.265625 608.257812 526.683594 600.617188 532.730469 C 594.890625 537.191406 586.613281 540.695312 589.476562 549.929688 C 591.070312 555.34375 595.207031 554.707031 599.664062 554.707031 C 605.074219 554.707031 603.800781 554.386719 606.667969 550.566406 C 610.167969 545.152344 617.171875 545.152344 620.675781 540.054688 C 623.21875 536.234375 622.582031 531.777344 621.945312 527.636719 C 620.355469 516.808594 623.539062 509.164062 628.632812 499.929688 " fill-opacity="1" fill-rule="nonzero"/><path fill="#cad6f0" d="M 605.371094 310.402344 C 599.707031 306.445312 596.398438 299.191406 598.867188 291.871094 C 602.425781 281.613281 612.289062 285.421875 617.21875 290.988281 C 623.792969 298.902344 630.644531 292.746094 638.039062 289.527344 C 647.902344 285.421875 650.371094 299.191406 660.777344 294.210938 C 665.984375 291.574219 668.449219 288.351562 674.476562 288.351562 C 680.230469 288.351562 681.324219 290.988281 684.886719 295.09375 C 687.078125 297.730469 693.925781 300.074219 694.203125 303.296875 C 694.75 307.105469 691.050781 311.574219 685.847656 313.039062 C 672.800781 316.710938 618.179688 319.339844 605.371094 310.402344 " fill-opacity="1" fill-rule="nonzero"/><path fill="#a6c1e8" d="M 605.578125 302.679688 L 605.582031 302.582031 C 605.59375 302.09375 605.703125 299.785156 606.226562 297.671875 C 606.484375 296.621094 606.851562 295.621094 607.300781 294.957031 C 607.527344 294.621094 607.765625 294.378906 607.996094 294.226562 C 608.234375 294.074219 608.457031 294.003906 608.738281 294 C 608.988281 294 609.300781 294.0625 609.691406 294.25 C 610.078125 294.433594 610.539062 294.738281 611.0625 295.195312 C 615.167969 298.792969 620.382812 301.113281 625.828125 301.113281 C 629.375 301.117188 633.011719 300.121094 636.4375 297.871094 C 638.5 296.519531 640.246094 296.046875 641.777344 296.046875 C 643.960938 296.042969 645.816406 297.03125 647.484375 298.203125 C 648.316406 298.789062 649.09375 299.414062 649.835938 299.957031 C 650.582031 300.503906 651.289062 300.984375 652.0625 301.25 C 653.515625 301.746094 654.832031 301.964844 656.035156 301.964844 C 657.667969 301.964844 659.082031 301.558594 660.328125 300.953125 C 662.203125 300.046875 663.71875 298.730469 665.246094 297.625 C 666.773438 296.515625 668.28125 295.628906 670.128906 295.394531 C 670.476562 295.351562 670.828125 295.332031 671.179688 295.332031 C 674.011719 295.320312 677.0625 296.699219 679.375 298.121094 C 680.53125 298.832031 681.503906 299.539062 682.183594 300.070312 C 682.523438 300.335938 682.792969 300.558594 682.972656 300.710938 C 683.0625 300.789062 683.128906 300.847656 683.175781 300.886719 L 683.238281 300.941406 C 683.574219 301.25 684.097656 301.222656 684.402344 300.886719 C 684.707031 300.550781 684.679688 300.03125 684.34375 299.726562 C 684.320312 299.703125 682.679688 298.21875 680.230469 296.71875 C 677.78125 295.226562 674.53125 293.695312 671.179688 293.683594 C 670.761719 293.683594 670.34375 293.710938 669.921875 293.761719 C 668.414062 293.953125 667.113281 294.503906 665.949219 295.1875 C 664.199219 296.21875 662.730469 297.542969 661.1875 298.5625 C 659.640625 299.589844 658.070312 300.316406 656.035156 300.320312 C 655.03125 300.316406 653.902344 300.136719 652.589844 299.691406 C 652.125 299.539062 651.507812 299.152344 650.808594 298.632812 C 649.753906 297.859375 648.507812 296.8125 647.023438 295.949219 C 645.542969 295.089844 643.800781 294.402344 641.777344 294.402344 C 639.894531 294.398438 637.804688 295.003906 635.535156 296.496094 C 632.367188 298.570312 629.070312 299.46875 625.828125 299.46875 C 620.859375 299.472656 616 297.335938 612.144531 293.960938 C 611.535156 293.425781 610.960938 293.03125 610.394531 292.761719 C 609.832031 292.496094 609.277344 292.355469 608.738281 292.355469 C 608.09375 292.351562 607.488281 292.570312 607.003906 292.910156 C 606.152344 293.519531 605.613281 294.449219 605.203125 295.464844 C 604.59375 296.988281 604.289062 298.761719 604.121094 300.171875 C 603.957031 301.585938 603.933594 302.628906 603.933594 302.648438 C 603.925781 303.101562 604.285156 303.476562 604.738281 303.484375 C 605.195312 303.496094 605.570312 303.132812 605.578125 302.679688 " fill-opacity="1" fill-rule="nonzero"/><path fill="#cad6f0" d="M 771.34375 298.308594 C 765.679688 294.355469 762.375 287.101562 764.839844 279.773438 C 768.402344 269.523438 778.265625 273.328125 783.195312 278.898438 C 789.773438 286.808594 796.621094 280.65625 804.015625 277.429688 C 813.878906 273.328125 816.34375 287.101562 826.753906 282.121094 C 831.960938 279.484375 834.425781 276.261719 840.453125 276.261719 C 846.203125 276.261719 847.300781 278.898438 850.863281 283 C 853.054688 285.636719 859.902344 287.980469 860.175781 291.203125 C 860.726562 295.011719 857.027344 299.480469 851.820312 300.945312 C 838.773438 304.617188 784.15625 307.246094 771.34375 298.308594 " fill-opacity="1" fill-rule="nonzero"/><path fill="#a6c1e8" d="M 771.550781 290.589844 L 771.554688 290.492188 C 771.570312 290.003906 771.679688 287.691406 772.203125 285.582031 C 772.457031 284.527344 772.828125 283.527344 773.277344 282.863281 C 773.5 282.53125 773.738281 282.285156 773.972656 282.132812 C 774.207031 281.980469 774.429688 281.910156 774.714844 281.910156 C 774.964844 281.910156 775.277344 281.972656 775.664062 282.15625 C 776.054688 282.339844 776.515625 282.648438 777.039062 283.105469 C 781.144531 286.699219 786.355469 289.019531 791.800781 289.023438 C 795.351562 289.023438 798.984375 288.027344 802.414062 285.777344 C 804.476562 284.425781 806.21875 283.953125 807.753906 283.953125 C 809.9375 283.949219 811.789062 284.9375 813.457031 286.113281 C 814.289062 286.695312 815.066406 287.320312 815.8125 287.867188 C 816.558594 288.414062 817.265625 288.890625 818.039062 289.15625 C 819.492188 289.652344 820.808594 289.871094 822.011719 289.871094 C 823.644531 289.875 825.058594 289.46875 826.304688 288.863281 C 828.179688 287.953125 829.691406 286.636719 831.21875 285.535156 C 832.75 284.425781 834.253906 283.535156 836.101562 283.300781 C 836.449219 283.257812 836.800781 283.238281 837.15625 283.238281 C 839.988281 283.226562 843.039062 284.609375 845.351562 286.03125 C 846.503906 286.738281 847.480469 287.449219 848.160156 287.980469 C 848.5 288.242188 848.765625 288.464844 848.945312 288.621094 C 849.035156 288.695312 849.105469 288.753906 849.152344 288.792969 L 849.214844 288.851562 C 849.550781 289.15625 850.070312 289.128906 850.375 288.792969 C 850.679688 288.457031 850.65625 287.9375 850.320312 287.632812 C 850.292969 287.609375 848.65625 286.125 846.207031 284.628906 C 843.757812 283.136719 840.503906 281.601562 837.15625 281.59375 C 836.738281 281.59375 836.316406 281.617188 835.894531 281.671875 C 834.390625 281.859375 833.085938 282.410156 831.921875 283.09375 C 830.175781 284.125 828.707031 285.449219 827.160156 286.472656 C 825.617188 287.496094 824.046875 288.222656 822.011719 288.226562 C 821.007812 288.226562 819.875 288.042969 818.566406 287.601562 C 818.101562 287.445312 817.484375 287.058594 816.785156 286.539062 C 815.726562 285.769531 814.480469 284.722656 813 283.859375 C 811.519531 282.992188 809.777344 282.308594 807.753906 282.308594 C 805.867188 282.304688 803.78125 282.910156 801.507812 284.402344 C 798.34375 286.480469 795.042969 287.375 791.800781 287.378906 C 786.835938 287.378906 781.976562 285.242188 778.121094 281.867188 C 777.511719 281.335938 776.9375 280.941406 776.371094 280.671875 C 775.808594 280.402344 775.253906 280.261719 774.714844 280.261719 C 774.066406 280.261719 773.464844 280.476562 772.980469 280.820312 C 772.128906 281.429688 771.585938 282.359375 771.179688 283.371094 C 770.570312 284.894531 770.261719 286.667969 770.09375 288.082031 C 769.929688 289.492188 769.910156 290.539062 769.910156 290.554688 C 769.902344 291.007812 770.261719 291.382812 770.714844 291.394531 C 771.167969 291.402344 771.542969 291.042969 771.550781 290.589844 " fill-opacity="1" fill-rule="nonzero"/><path fill="#cad6f0" d="M 674.5625 259.441406 C 674.277344 255.375 675.9375 252.339844 678.226562 250.050781 C 680.972656 247.53125 685.746094 244.664062 689.359375 246.1875 C 695.214844 248.652344 694.9375 250.738281 697.914062 252.113281 C 702.035156 253.714844 702.953125 252.113281 706.15625 250.050781 C 708.90625 248.21875 713.980469 244.882812 717.640625 245.570312 C 720.847656 246.257812 721.265625 251.652344 724.015625 252.339844 C 726.761719 252.796875 732.507812 243 741.871094 247.53125 C 747.503906 250.253906 745.082031 257.152344 742.101562 260.359375 C 735.234375 267.6875 726.886719 269.9375 717.433594 270.148438 C 689.617188 270.78125 675.09375 266.980469 674.5625 259.441406 " fill-opacity="1" fill-rule="nonzero"/><path fill="#a6c1e8" d="M 679.492188 256.773438 L 679.496094 256.769531 C 679.554688 256.660156 680.257812 255.5 681.371094 254.402344 C 681.925781 253.851562 682.582031 253.324219 683.296875 252.9375 C 684.011719 252.554688 684.773438 252.316406 685.574219 252.316406 C 686.324219 252.320312 687.121094 252.519531 688.011719 253.054688 C 691.363281 255.074219 695.71875 257.492188 700.515625 257.5 C 703.570312 257.507812 706.785156 256.476562 709.832031 253.796875 C 711.648438 252.203125 713.019531 251.695312 714.007812 251.699219 C 714.742188 251.699219 715.335938 251.957031 715.914062 252.40625 C 716.769531 253.082031 717.496094 254.226562 718.082031 255.339844 C 718.375 255.894531 718.640625 256.4375 718.890625 256.914062 C 719.148438 257.390625 719.367188 257.792969 719.695312 258.136719 C 720.5 258.972656 721.5 259.390625 722.496094 259.382812 C 723.492188 259.378906 724.445312 259.019531 725.382812 258.496094 C 726.785156 257.707031 728.191406 256.523438 729.636719 255.292969 C 731.074219 254.058594 732.546875 252.78125 733.992188 251.804688 C 735.136719 251.027344 735.960938 250.789062 736.488281 250.792969 C 736.898438 250.796875 737.160156 250.910156 737.417969 251.117188 C 737.804688 251.417969 738.132812 252.007812 738.367188 252.640625 C 738.488281 252.957031 738.585938 253.277344 738.675781 253.570312 C 738.765625 253.867188 738.839844 254.128906 738.9375 254.378906 C 739.105469 254.796875 739.585938 255 740.007812 254.828125 C 740.429688 254.660156 740.628906 254.179688 740.460938 253.757812 C 740.394531 253.605469 740.289062 253.222656 740.148438 252.78125 C 739.9375 252.109375 739.648438 251.265625 739.105469 250.523438 C 738.832031 250.15625 738.484375 249.808594 738.042969 249.554688 C 737.601562 249.300781 737.066406 249.148438 736.488281 249.148438 C 735.484375 249.152344 734.378906 249.5625 733.074219 250.4375 C 730.984375 251.851562 729 253.726562 727.164062 255.222656 C 726.25 255.964844 725.375 256.617188 724.578125 257.0625 C 723.78125 257.511719 723.074219 257.742188 722.496094 257.738281 C 721.921875 257.726562 721.441406 257.554688 720.871094 256.984375 C 720.816406 256.9375 720.695312 256.769531 720.5625 256.535156 C 720.324219 256.128906 720.03125 255.523438 719.683594 254.855469 C 719.160156 253.855469 718.519531 252.699219 717.621094 251.753906 C 716.738281 250.8125 715.523438 250.050781 714.007812 250.050781 C 712.449219 250.058594 710.726562 250.824219 708.75 252.558594 C 705.957031 254.996094 703.210938 255.847656 700.515625 255.855469 C 696.292969 255.863281 692.160156 253.648438 688.859375 251.644531 C 687.746094 250.96875 686.625 250.671875 685.574219 250.675781 C 684.40625 250.675781 683.34375 251.03125 682.429688 251.539062 C 681.058594 252.300781 679.988281 253.398438 679.242188 254.300781 C 678.496094 255.207031 678.082031 255.925781 678.066406 255.953125 C 677.839844 256.347656 677.976562 256.847656 678.367188 257.074219 C 678.761719 257.300781 679.261719 257.167969 679.492188 256.773438 " fill-opacity="1" fill-rule="nonzero"/><path fill="#70cb75" d="M 634.746094 556.71875 C 634.59375 556.722656 634.441406 556.726562 634.285156 556.726562 C 631.089844 556.730469 626.972656 555.914062 623.753906 554.632812 C 622.148438 553.996094 620.761719 553.238281 619.835938 552.464844 C 619.375 552.078125 619.03125 551.691406 618.820312 551.339844 C 618.605469 550.988281 618.519531 550.683594 618.519531 550.390625 C 618.523438 550.042969 618.636719 549.660156 619.03125 549.164062 C 619.421875 548.671875 620.101562 548.105469 621.128906 547.515625 C 631.140625 541.777344 640.8125 539.839844 650.332031 539.839844 C 659.789062 539.835938 669.085938 541.765625 678.296875 543.828125 C 687.503906 545.886719 696.617188 548.074219 705.71875 548.511719 C 711.328125 548.785156 716.355469 548.90625 720.902344 548.90625 C 735.554688 548.90625 745.214844 547.65625 753.214844 546.222656 C 761.21875 544.789062 767.523438 543.183594 775.570312 542.441406 C 777.46875 542.269531 779.355469 542.1875 781.226562 542.1875 C 789.546875 542.1875 797.648438 543.808594 805.730469 546.09375 L 805.753906 546.101562 C 807.367188 546.5 809.863281 547.761719 811.835938 549.269531 C 812.828125 550.019531 813.699219 550.835938 814.289062 551.601562 C 814.890625 552.371094 815.167969 553.070312 815.15625 553.523438 C 815.15625 553.714844 815.121094 553.871094 815.039062 554.039062 C 814.921875 554.277344 814.675781 554.5625 814.167969 554.859375 C 813.667969 555.148438 812.917969 555.4375 811.890625 555.660156 C 811.355469 555.773438 811.019531 556.300781 811.132812 556.835938 C 811.253906 557.371094 811.777344 557.710938 812.3125 557.59375 C 813.863281 557.25 815.015625 556.777344 815.847656 556.097656 C 816.261719 555.757812 816.589844 555.363281 816.8125 554.921875 C 817.035156 554.480469 817.136719 553.996094 817.136719 553.523438 C 817.125 552.382812 816.589844 551.351562 815.855469 550.390625 C 814.738281 548.953125 813.078125 547.617188 811.332031 546.515625 C 809.578125 545.417969 807.757812 544.570312 806.242188 544.183594 L 805.996094 545.140625 L 806.265625 544.191406 C 798.089844 541.875 789.808594 540.207031 781.226562 540.207031 C 779.296875 540.207031 777.351562 540.292969 775.386719 540.472656 C 767.164062 541.230469 760.78125 542.855469 752.863281 544.273438 C 744.941406 545.691406 735.449219 546.921875 720.902344 546.925781 C 716.390625 546.925781 711.394531 546.804688 705.816406 546.535156 C 696.964844 546.109375 687.953125 543.960938 678.726562 541.894531 C 669.5 539.832031 660.058594 537.859375 650.332031 537.859375 C 640.546875 537.855469 630.46875 539.875 620.144531 545.800781 C 618.976562 546.46875 618.101562 547.164062 617.488281 547.921875 C 616.878906 548.679688 616.539062 549.53125 616.539062 550.390625 C 616.539062 551.101562 616.765625 551.777344 617.128906 552.371094 C 617.765625 553.410156 618.789062 554.257812 620.035156 555.015625 C 621.90625 556.144531 624.3125 557.050781 626.832031 557.695312 C 629.351562 558.332031 631.976562 558.703125 634.285156 558.703125 C 634.457031 558.703125 634.628906 558.703125 634.796875 558.699219 C 635.339844 558.6875 635.773438 558.230469 635.757812 557.6875 C 635.746094 557.136719 635.292969 556.707031 634.746094 556.71875 " fill-opacity="1" fill-rule="nonzero"/><path fill="#70cb75" d="M 660.492188 558.265625 C 670.28125 558.046875 680.09375 557.96875 689.917969 557.96875 C 719.386719 557.96875 748.960938 558.699219 778.371094 558.699219 C 778.917969 558.699219 779.359375 558.253906 779.359375 557.710938 C 779.359375 557.164062 778.917969 556.71875 778.371094 556.71875 C 748.992188 556.71875 719.417969 555.988281 689.917969 555.988281 C 680.085938 555.988281 670.257812 556.070312 660.449219 556.289062 C 659.902344 556.296875 659.46875 556.75 659.480469 557.296875 C 659.492188 557.84375 659.945312 558.277344 660.492188 558.265625 " fill-opacity="1" fill-rule="nonzero"/><path fill="#3a77a8" d="M 707.0625 426.148438 C 707.0625 426.148438 706.75 444.835938 704.226562 452.734375 C 701.976562 459.78125 681.195312 480.8125 677.59375 484.777344 C 671.722656 491.234375 642.507812 522.054688 634.296875 529.097656 L 625.675781 519.289062 C 625.675781 519.289062 653.28125 486.882812 660.871094 475.382812 C 668.457031 463.882812 684.179688 426.148438 684.179688 426.148438 L 707.0625 426.148438 " fill-opacity="1" fill-rule="nonzero"/><path fill="#346a96" d="M 636.511719 519.941406 C 635.195312 517.195312 638.054688 513.289062 639.4375 511.1875 C 646.066406 501.121094 654.277344 492.636719 661.851562 483.316406 C 675.363281 466.691406 688.671875 447.140625 694.824219 426.148438 L 684.179688 426.148438 C 684.179688 426.148438 668.457031 463.882812 660.871094 475.382812 C 653.28125 486.882812 625.675781 519.289062 625.675781 519.289062 L 634.296875 529.097656 C 635.667969 527.925781 637.632812 526.074219 639.96875 523.796875 C 638.546875 522.761719 637.289062 521.5625 636.511719 519.941406 " fill-opacity="1" fill-rule="nonzero"/><path fill="#4786ae" d="M 658.753906 422.394531 C 658.753906 422.394531 655.332031 441.667969 659.4375 448.382812 C 661.519531 451.785156 682.742188 465.378906 685.304688 475.652344 C 689.300781 491.652344 692.273438 530.425781 692.273438 540.644531 L 704.480469 540.644531 C 704.480469 540.644531 707.527344 478.589844 705.179688 471.25 C 702.832031 463.910156 693.203125 435.980469 688.203125 425.839844 L 658.753906 422.394531 " fill-opacity="1" fill-rule="nonzero"/><path fill="#645499" d="M 698.164062 540.171875 C 699.027344 540.261719 700.71875 539.671875 700.023438 537.359375 C 699.195312 534.609375 711.566406 537.546875 714.507812 539.347656 C 717.371094 541.101562 718.59375 543.292969 716.78125 546.246094 L 691.550781 546.355469 C 691.550781 546.355469 690.707031 537.617188 692.300781 537.941406 C 693.929688 538.269531 693.390625 539.6875 698.164062 540.171875 " fill-opacity="1" fill-rule="nonzero"/><path fill="#645499" d="M 630.339844 522.648438 C 630.867188 523.335938 632.460938 524.15625 633.65625 522.058594 C 635.078125 519.558594 641.476562 530.558594 642.199219 533.925781 C 642.902344 537.214844 642.160156 539.613281 638.769531 540.328125 L 621.300781 522.113281 C 621.300781 522.113281 627.050781 515.480469 627.914062 516.859375 C 628.800781 518.269531 627.398438 518.855469 630.339844 522.648438 " fill-opacity="1" fill-rule="nonzero"/><path fill="#3a77a8" d="M 696.402344 521.515625 C 695.71875 508.476562 695.492188 495.203125 692.628906 482.40625 C 691.246094 476.222656 689.550781 469.351562 685.984375 464.015625 C 682.152344 458.28125 676.761719 453.375 672.050781 448.359375 C 668.617188 444.699219 665.804688 441.289062 665.527344 436.085938 C 665.296875 431.785156 665.792969 427.527344 666.058594 423.25 L 658.753906 422.394531 C 658.753906 422.394531 655.332031 441.667969 659.4375 448.382812 C 661.519531 451.785156 682.742188 465.378906 685.304688 475.652344 C 689.300781 491.652344 692.273438 530.425781 692.273438 540.644531 L 704.480469 540.644531 C 704.480469 540.644531 704.613281 538.007812 704.796875 533.765625 C 699.570312 532.308594 696.761719 528.371094 696.402344 521.515625 " fill-opacity="1" fill-rule="nonzero"/><path fill="#f79875" d="M 642.546875 436.601562 C 642.546875 436.601562 636.832031 446.695312 643.453125 451.929688 C 648.820312 456.171875 648.0625 447.765625 648.648438 445.777344 C 648.898438 444.933594 653.175781 448.113281 651.511719 443.929688 C 650.484375 441.351562 648.78125 438.898438 648.554688 437.667969 C 648.328125 436.429688 642.546875 436.601562 642.546875 436.601562 " fill-opacity="1" fill-rule="nonzero"/><path fill="#bfa9db" d="M 671.820312 361.847656 C 671.820312 361.847656 653.246094 375.714844 645.277344 390.671875 C 639.636719 401.261719 640.242188 432.3125 641.34375 437.449219 C 641.84375 439.78125 650.175781 439.457031 650.878906 437.449219 C 653.078125 431.136719 653.226562 406.351562 654.984375 400.144531 C 656.746094 393.9375 666.425781 388.359375 666.425781 388.359375 L 671.820312 361.847656 " fill-opacity="1" fill-rule="nonzero"/><path fill="#3a77a8" d="M 812.121094 422.394531 C 812.121094 422.394531 811.757812 435.4375 809.234375 443.335938 C 806.984375 450.378906 783.292969 480.289062 779.691406 484.257812 C 773.824219 490.714844 744.609375 521.535156 736.394531 528.582031 L 727.777344 518.773438 C 727.777344 518.773438 755.382812 486.363281 762.96875 474.867188 C 770.558594 463.367188 786.445312 422.394531 786.445312 422.394531 L 812.121094 422.394531 " fill-opacity="1" fill-rule="nonzero"/><path fill="#f5802f" d="M 780.816406 354.714844 C 780.816406 354.714844 769.300781 356.234375 766.660156 372.082031 C 764.019531 387.933594 762.390625 417.40625 762.980469 422.394531 C 763.566406 427.386719 807.277344 426.945312 811.386719 423.71875 C 815.496094 420.488281 810.507812 372.792969 810.507812 372.792969 C 810.507812 372.792969 810.292969 358.945312 795.878906 354.714844 L 780.816406 354.714844 " fill-opacity="1" fill-rule="nonzero"/><path fill="#f79875" d="M 734.332031 423.191406 C 734.332031 423.191406 727.265625 433.859375 734.808594 440.199219 C 740.917969 445.335938 740.328125 435.507812 741.085938 433.207031 C 741.40625 432.226562 746.285156 436.089844 744.488281 431.152344 C 743.382812 428.109375 741.480469 425.1875 741.261719 423.738281 C 741.039062 422.292969 734.332031 423.191406 734.332031 423.191406 " fill-opacity="1" fill-rule="nonzero"/><path fill="#f47052" d="M 836.878906 430.289062 C 836.878906 430.289062 841.792969 442.90625 851.40625 440.769531 C 859.199219 439.039062 851.042969 433.53125 849.675781 431.53125 C 849.09375 430.679688 855.125 429.15625 850.113281 427.578125 C 847.027344 426.605469 843.554688 426.339844 842.269531 425.636719 C 840.984375 424.929688 836.878906 430.289062 836.878906 430.289062 " fill-opacity="1" fill-rule="nonzero"/><path fill="#346a96" d="M 741.460938 509.867188 C 747.691406 500.417969 755.023438 491.734375 761.996094 482.835938 C 769.242188 473.589844 775.679688 463.992188 780.386719 453.183594 C 784.738281 443.195312 788.003906 432.824219 791.109375 422.394531 L 786.445312 422.394531 C 786.445312 422.394531 770.558594 463.367188 762.96875 474.867188 C 755.382812 486.363281 727.777344 518.773438 727.777344 518.773438 L 736.394531 528.582031 C 737.824219 527.355469 739.894531 525.402344 742.359375 522.992188 C 737.585938 520.1875 738.316406 514.640625 741.460938 509.867188 " fill-opacity="1" fill-rule="nonzero"/><path fill="#4786ae" d="M 762.980469 422.394531 C 762.980469 422.394531 762.6875 446.074219 765.035156 449.304688 C 767.382812 452.53125 784.839844 464.859375 787.40625 475.132812 C 791.402344 491.132812 794.371094 529.90625 794.371094 540.125 L 806.582031 540.125 C 806.582031 540.125 809.625 478.066406 807.277344 470.730469 C 804.933594 463.394531 795.300781 435.464844 790.304688 425.320312 L 762.980469 422.394531 " fill-opacity="1" fill-rule="nonzero"/><path fill="#3a77a8" d="M 800.671875 530.171875 C 797.859375 527.363281 798.53125 522.332031 798.613281 518.804688 C 798.761719 512.199219 797.804688 505.542969 797.082031 498.988281 C 796.390625 492.691406 796.226562 486.242188 795.113281 480.003906 C 794.015625 473.8125 792.332031 467.644531 789.410156 462.042969 C 786.59375 456.632812 782.820312 451.964844 779.488281 446.894531 C 776.382812 442.164062 773.933594 437.378906 772.933594 431.777344 C 772.4375 429.027344 772.324219 426.210938 772.316406 423.394531 L 762.980469 422.394531 C 762.980469 422.394531 762.6875 446.074219 765.035156 449.304688 C 767.382812 452.53125 784.839844 464.859375 787.40625 475.132812 C 791.402344 491.132812 794.371094 529.90625 794.371094 540.125 L 806.582031 540.125 C 806.582031 540.125 806.730469 537.074219 806.9375 532.253906 C 804.632812 532.28125 802.527344 532.027344 800.671875 530.171875 " fill-opacity="1" fill-rule="nonzero"/><path fill="#f47120" d="M 798.652344 421.253906 C 791.644531 420.21875 786.734375 415.449219 784.980469 401.949219 C 783.945312 393.96875 780.785156 354.996094 780.75 354.726562 C 779.851562 354.871094 769.1875 356.90625 766.660156 372.082031 C 764.019531 387.933594 762.390625 417.40625 762.980469 422.394531 C 763.566406 427.386719 807.277344 426.945312 811.386719 423.71875 C 811.699219 423.46875 811.960938 422.960938 812.171875 422.234375 C 807.597656 422.199219 803.035156 421.898438 798.652344 421.253906 " fill-opacity="1" fill-rule="nonzero"/><path fill="#4b415d" d="M 770.519531 358.492188 C 770.519531 358.492188 746.664062 375.6875 740.550781 389.347656 C 734.894531 401.992188 732.394531 417.582031 731.582031 423.554688 C 731.359375 425.171875 742.707031 425.832031 742.910156 424.949219 C 744.117188 419.824219 749.351562 401.191406 750.527344 397.371094 C 751.699219 393.550781 769.140625 377.195312 769.140625 377.195312 L 770.519531 358.492188 " fill-opacity="1" fill-rule="nonzero"/><path fill="#4b415d" d="M 803.972656 357.546875 C 803.972656 357.546875 813.457031 361.449219 817.808594 374.773438 C 820.753906 383.796875 822.625 400.589844 828.121094 407.878906 C 833.695312 415.277344 840.433594 419.300781 843.707031 424.238281 C 844.527344 425.476562 838.734375 434.5 836.3125 433.351562 C 829.636719 430.195312 817.402344 418.882812 813.007812 411.265625 C 806.207031 399.472656 802.453125 365.847656 803.972656 357.546875 " fill-opacity="1" fill-rule="nonzero"/><path fill="#4b415d" d="M 780.816406 354.714844 C 780.816406 354.714844 778.414062 372.847656 780.816406 390.429688 C 783.222656 408.015625 783.019531 447.679688 772.558594 456.269531 C 772.558594 456.269531 756.058594 457.816406 755.410156 451.652344 C 754.765625 445.488281 762.769531 392.050781 764.65625 378.394531 C 766.644531 363.984375 766.222656 356.480469 780.816406 354.714844 " fill-opacity="1" fill-rule="nonzero"/><path fill="#4b415d" d="M 795.878906 354.714844 C 795.878906 354.714844 808.5625 399.535156 801.191406 455.605469 C 801.191406 455.605469 804.859375 463.957031 806.066406 467.34375 C 807.277344 470.730469 812.675781 435.671875 814.917969 419.78125 C 817.265625 403.148438 822.613281 359.4375 795.878906 354.714844 " fill-opacity="1" fill-rule="nonzero"/><path fill="#f79875" d="M 780.816406 354.714844 C 780.816406 354.714844 785.707031 348.652344 785.707031 340.824219 L 794.507812 344.34375 C 794.507812 344.34375 792.550781 350.019531 795.878906 354.714844 C 795.878906 354.714844 791.34375 362.789062 788.664062 362.835938 C 785.886719 362.890625 780.816406 354.714844 780.816406 354.714844 " fill-opacity="1" fill-rule="nonzero"/><path fill="#f47052" d="M 793.941406 348.386719 C 793.921875 346.0625 794.507812 344.34375 794.507812 344.34375 L 785.707031 340.824219 C 785.707031 343.640625 785.070312 346.226562 784.257812 348.386719 L 793.941406 348.386719 " fill-opacity="1" fill-rule="nonzero"/><path fill="#f79875" d="M 802.257812 318.195312 C 807.054688 324.25 807.039062 348.621094 793.648438 347.28125 C 778.492188 345.765625 775.117188 332.171875 776.242188 325.371094 C 777.960938 314.941406 793.09375 306.625 802.257812 318.195312 " fill-opacity="1" fill-rule="nonzero"/><path fill="#ebdadf" d="M 785.433594 334.515625 C 784.90625 331.894531 782.859375 325.535156 785.878906 327.175781 C 788.105469 328.382812 787.003906 322.210938 788.609375 320.441406 C 792.265625 316.417969 788.816406 312.859375 788.816406 312.859375 C 777.328125 314.289062 773.886719 327.128906 776.390625 334.296875 C 777.726562 338.128906 781.152344 343.746094 783.605469 344.796875 C 783.605469 344.796875 786.15625 347.335938 794.671875 347.335938 C 804.492188 347.335938 804.734375 335.738281 804.734375 335.738281 C 803.050781 336.207031 802.816406 339.453125 800.375 337.671875 C 797.363281 335.46875 792.917969 336.164062 790.605469 337.75 C 787.566406 339.839844 785.707031 335.871094 785.433594 334.515625 " fill-opacity="1" fill-rule="nonzero"/><path fill="#3f364d" d="M 800.265625 539.652344 C 801.125 539.742188 802.816406 539.152344 802.121094 536.84375 C 801.292969 534.089844 813.667969 537.03125 816.605469 538.828125 C 819.472656 540.582031 820.695312 542.773438 818.878906 545.726562 L 793.648438 545.835938 C 793.648438 545.835938 792.808594 537.097656 794.402344 537.417969 C 796.03125 537.75 795.492188 539.171875 800.265625 539.652344 " fill-opacity="1" fill-rule="nonzero"/><path fill="#3f364d" d="M 732.4375 522.128906 C 732.96875 522.8125 734.5625 523.636719 735.753906 521.539062 C 737.175781 519.042969 743.574219 530.039062 744.300781 533.410156 C 745 536.699219 744.261719 539.089844 740.867188 539.8125 L 723.402344 521.597656 C 723.402344 521.597656 729.148438 514.964844 730.015625 516.339844 C 730.898438 517.75 729.5 518.335938 732.4375 522.128906 " fill-opacity="1" fill-rule="nonzero"/><path fill="#3f3450" d="M 807.15625 420.992188 C 807.789062 412.339844 806.429688 370.957031 801.738281 356.617188 C 799.976562 355.761719 798.039062 355.097656 795.878906 354.714844 C 795.878906 354.714844 808.5625 399.535156 801.191406 455.605469 C 801.191406 455.605469 804.859375 463.957031 806.066406 467.34375 C 806.5 468.542969 807.449219 465.75 808.605469 460.945312 C 806.632812 458.179688 806.449219 455.257812 806.433594 451.347656 C 806.40625 443.433594 806.574219 428.882812 807.15625 420.992188 " fill-opacity="1" fill-rule="nonzero"/><path fill="#3f3450" d="M 780.816406 390.429688 C 778.414062 372.847656 780.816406 354.714844 780.816406 354.714844 C 772.1875 356.085938 777.113281 402.199219 774.925781 425.007812 C 774.25 432.054688 772.75 446.160156 765.171875 448.585938 C 761.96875 449.609375 758.695312 449.925781 755.390625 449.960938 C 755.367188 450.679688 755.371094 451.253906 755.410156 451.652344 C 756.058594 457.816406 772.558594 456.269531 772.558594 456.269531 C 783.019531 447.679688 783.222656 408.015625 780.816406 390.429688 " fill-opacity="1" fill-rule="nonzero"/><path fill="#f79875" d="M 788.363281 331.179688 C 788.078125 329.980469 785.832031 323.855469 783.238281 328.582031 C 781.546875 331.660156 786.230469 336.015625 787.5 335.226562 C 788.816406 334.40625 788.609375 332.183594 788.363281 331.179688 " fill-opacity="1" fill-rule="nonzero"/><path fill="#f47052" d="M 786.867188 329.089844 C 786.859375 329.085938 786.617188 328.894531 786.269531 328.703125 C 785.921875 328.515625 785.476562 328.3125 785.027344 328.308594 C 784.75 328.304688 784.449219 328.402344 784.238281 328.648438 C 784.03125 328.890625 783.917969 329.242188 783.902344 329.722656 L 783.898438 329.898438 C 783.898438 331.070312 784.347656 331.949219 784.917969 332.523438 C 785.492188 333.101562 786.164062 333.394531 786.683594 333.445312 C 786.824219 333.457031 786.953125 333.355469 786.964844 333.214844 C 786.980469 333.070312 786.875 332.945312 786.734375 332.929688 C 786.363281 332.898438 785.765625 332.652344 785.285156 332.160156 C 784.800781 331.667969 784.417969 330.941406 784.414062 329.898438 L 784.417969 329.742188 C 784.433594 329.328125 784.53125 329.101562 784.628906 328.988281 C 784.734375 328.871094 784.847656 328.828125 785.027344 328.828125 C 785.3125 328.824219 785.710938 328.984375 786.019531 329.160156 C 786.171875 329.242188 786.308594 329.328125 786.402344 329.398438 C 786.5 329.460938 786.550781 329.5 786.550781 329.5 C 786.664062 329.585938 786.828125 329.566406 786.910156 329.453125 C 787 329.339844 786.980469 329.175781 786.867188 329.089844 " fill-opacity="1" fill-rule="nonzero"/><path fill="#ebdadf" d="M 792.816406 326.742188 C 792.792969 326.71875 792.007812 325.875 790.644531 325.871094 C 789.878906 325.871094 788.949219 326.148438 787.929688 326.953125 C 787.808594 327.050781 787.789062 327.226562 787.886719 327.347656 C 787.980469 327.46875 788.15625 327.488281 788.277344 327.394531 C 789.222656 326.648438 790.015625 326.429688 790.644531 326.429688 C 791.203125 326.429688 791.648438 326.605469 791.953125 326.78125 C 792.105469 326.871094 792.222656 326.957031 792.300781 327.023438 L 792.386719 327.101562 L 792.410156 327.125 C 792.515625 327.234375 792.691406 327.242188 792.804688 327.136719 C 792.917969 327.03125 792.925781 326.855469 792.816406 326.742188 " fill-opacity="1" fill-rule="nonzero"/><path fill="#ebdadf" d="M 803.339844 326.769531 C 803.316406 326.746094 802.527344 325.902344 801.164062 325.898438 C 800.398438 325.898438 799.472656 326.175781 798.453125 326.984375 C 798.332031 327.082031 798.308594 327.257812 798.40625 327.378906 C 798.503906 327.5 798.679688 327.519531 798.800781 327.425781 C 799.742188 326.679688 800.535156 326.460938 801.164062 326.460938 C 801.726562 326.460938 802.167969 326.636719 802.472656 326.8125 C 802.625 326.902344 802.746094 326.988281 802.820312 327.054688 L 802.910156 327.128906 L 802.933594 327.152344 C 803.035156 327.265625 803.210938 327.273438 803.324219 327.164062 C 803.4375 327.058594 803.445312 326.882812 803.339844 326.769531 " fill-opacity="1" fill-rule="nonzero"/><path fill="#211b25" d="M 791.605469 329.398438 C 791.605469 330.246094 791.128906 330.925781 790.535156 330.925781 C 789.945312 330.925781 789.46875 330.246094 789.46875 329.398438 C 789.46875 328.554688 789.945312 327.871094 790.535156 327.871094 C 791.128906 327.871094 791.605469 328.554688 791.605469 329.398438 " fill-opacity="1" fill-rule="nonzero"/><path fill="#211b25" d="M 802.105469 329.429688 C 802.105469 330.273438 801.628906 330.957031 801.039062 330.957031 C 800.449219 330.957031 799.96875 330.273438 799.96875 329.429688 C 799.96875 328.582031 800.449219 327.898438 801.039062 327.898438 C 801.628906 327.898438 802.105469 328.582031 802.105469 329.429688 " fill-opacity="1" fill-rule="nonzero"/><path fill="#f79875" d="M 792.324219 339.058594 C 792.753906 340.355469 794.21875 341.867188 795.878906 341.867188 C 797.617188 341.867188 799.367188 339.796875 799.433594 339.058594 L 792.324219 339.058594 " fill-opacity="1" fill-rule="nonzero"/><path fill="#f47052" d="M 794.804688 332.574219 C 794.96875 333.070312 795.53125 333.644531 796.164062 333.644531 C 796.828125 333.644531 797.496094 332.855469 797.523438 332.574219 L 794.804688 332.574219 " fill-opacity="1" fill-rule="nonzero"/><path fill="#f47052" d="M 791.949219 324.121094 L 791.960938 324.109375 C 792.109375 324.011719 793.574219 323.089844 795.894531 323.089844 C 797.046875 323.089844 798.410156 323.316406 799.941406 323.984375 C 800.085938 324.042969 800.25 323.980469 800.3125 323.839844 C 800.371094 323.695312 800.308594 323.53125 800.164062 323.472656 C 798.566406 322.769531 797.121094 322.53125 795.894531 322.53125 C 793.257812 322.53125 791.660156 323.640625 791.628906 323.660156 C 791.5 323.75 791.46875 323.921875 791.558594 324.050781 C 791.648438 324.175781 791.820312 324.207031 791.949219 324.121094 " fill-opacity="1" fill-rule="nonzero"/><path fill="#f47052" d="M 791.90625 322.203125 C 792.554688 321.898438 793.894531 321.398438 795.734375 321.398438 C 796.835938 321.398438 798.121094 321.578125 799.546875 322.082031 C 799.691406 322.136719 799.851562 322.058594 799.902344 321.914062 C 799.957031 321.765625 799.878906 321.609375 799.730469 321.554688 C 798.246094 321.027344 796.898438 320.839844 795.734375 320.839844 C 793.789062 320.839844 792.371094 321.367188 791.667969 321.699219 C 791.53125 321.765625 791.46875 321.929688 791.535156 322.070312 C 791.601562 322.210938 791.769531 322.269531 791.90625 322.203125 " fill-opacity="1" fill-rule="nonzero"/><path fill="#bfa9db" d="M 679.410156 359.210938 C 679.410156 359.210938 669.351562 358.8125 665.050781 371.726562 C 660.746094 384.644531 663.082031 405.394531 658.070312 421.828125 C 654.644531 433.046875 678.628906 433.0625 685.449219 432.792969 C 690.210938 432.601562 702.332031 432.257812 707.988281 428.761719 C 709.296875 427.957031 709.234375 418.125 708.175781 411.933594 C 705.636719 397.113281 709.433594 381.148438 703.515625 368.253906 C 701.230469 363.269531 696.335938 361.144531 690.785156 359.25 L 679.410156 359.210938 " fill-opacity="1" fill-rule="nonzero"/><path fill="#f47052" d="M 726.140625 431.628906 C 726.140625 431.628906 729.46875 442.742188 737.828125 441.582031 C 744.601562 440.640625 738.015625 435.375 736.988281 433.570312 C 736.550781 432.804688 741.804688 431.921875 737.632812 430.226562 C 735.066406 429.183594 732.113281 428.714844 731.070312 428.023438 C 730.023438 427.335938 726.140625 431.628906 726.140625 431.628906 " fill-opacity="1" fill-rule="nonzero"/><path fill="#bfa9db" d="M 699.472656 363.351562 C 699.472656 363.351562 710.101562 369.109375 713.320312 380.824219 C 715.476562 388.667969 716.023438 405.277344 720.210938 411.882812 C 724.460938 418.585938 729.9375 422.488281 732.390625 426.933594 C 733.007812 428.046875 727.4375 435.347656 725.445312 434.203125 C 719.96875 431.046875 710.296875 420.539062 707.070312 413.730469 C 702.078125 403.1875 697.601562 370.332031 699.472656 363.351562 " fill-opacity="1" fill-rule="nonzero"/><path fill="#f79875" d="M 681.75 350.304688 C 681.75 350.304688 680.808594 356.308594 679.410156 359.210938 C 679.410156 359.210938 682.136719 365.085938 685.402344 365.183594 C 687.140625 365.234375 689.34375 361.148438 690.785156 359.25 C 690.785156 359.25 689.046875 355.789062 689.042969 351.714844 L 681.75 350.304688 " fill-opacity="1" fill-rule="nonzero"/><path fill="#f47052" d="M 689.210938 353.96875 C 689.109375 353.253906 689.042969 352.496094 689.042969 351.714844 L 681.75 350.304688 C 681.75 350.304688 681.488281 351.96875 681.035156 353.96875 L 689.210938 353.96875 " fill-opacity="1" fill-rule="nonzero"/><path fill="#f79875" d="M 696.105469 322.894531 C 700.855469 328.890625 701.085938 352.539062 687.785156 351.949219 C 672.644531 351.28125 669.257812 336.726562 670.371094 329.996094 C 672.070312 319.679688 687.042969 311.453125 696.105469 322.894531 " fill-opacity="1" fill-rule="nonzero"/><path fill="#ebdadf" d="M 681.675781 350.761719 C 681.929688 352.390625 682.609375 359.285156 679.410156 359.460938 C 675.328125 359.6875 669.546875 363.171875 667.375 360.472656 C 663.320312 355.433594 668.496094 347.261719 666.496094 341.796875 C 665.222656 338.332031 664.816406 333.128906 667.847656 329.558594 C 670.265625 326.710938 669.683594 319.304688 675.808594 319.109375 C 679.027344 319.007812 680.628906 313.050781 686.039062 316.097656 C 691.449219 319.148438 695.496094 317.578125 697.855469 321.480469 C 699.464844 324.132812 699.296875 328.410156 697.90625 327.265625 C 695.097656 324.945312 693.507812 326.988281 691.28125 326.933594 C 688.734375 326.867188 687.304688 324.972656 684.925781 327.296875 C 683.238281 328.941406 683.234375 334.722656 680.335938 333.753906 C 678.011719 332.976562 681.203125 338.070312 680.925781 339.546875 C 679.992188 344.515625 681.328125 348.554688 681.675781 350.761719 " fill-opacity="1" fill-rule="nonzero"/><path fill="#9e8dce" d="M 665.148438 417.515625 C 669.574219 404.816406 666.664062 391.558594 668.414062 378.585938 C 669.257812 372.335938 670.1875 365.777344 673.707031 360.695312 C 670.6875 362.238281 667.167969 365.363281 665.050781 371.726562 C 660.746094 384.644531 662.429688 406.476562 657.417969 422.914062 C 653.996094 434.132812 678.628906 433.0625 685.449219 432.792969 C 690.210938 432.601562 702.332031 432.257812 707.988281 428.761719 C 708.554688 428.414062 708.863281 426.371094 708.945312 423.667969 C 697.046875 427.390625 659.722656 433.066406 665.148438 417.515625 " fill-opacity="1" fill-rule="nonzero"/><path fill="#f79875" d="M 682.410156 337.65625 C 682.121094 336.460938 679.878906 330.335938 677.285156 335.0625 C 675.59375 338.140625 680.273438 342.496094 681.542969 341.707031 C 682.863281 340.886719 682.65625 338.664062 682.410156 337.65625 " fill-opacity="1" fill-rule="nonzero"/><path fill="#f47052" d="M 680.910156 335.570312 C 680.902344 335.5625 680.660156 335.375 680.3125 335.183594 C 679.964844 334.996094 679.523438 334.792969 679.070312 334.789062 C 678.792969 334.785156 678.492188 334.882812 678.285156 335.125 C 678.074219 335.371094 677.964844 335.722656 677.945312 336.199219 L 677.945312 336.378906 C 677.941406 337.550781 678.390625 338.425781 678.960938 339.003906 C 679.535156 339.582031 680.210938 339.875 680.726562 339.925781 C 680.871094 339.9375 680.996094 339.835938 681.011719 339.691406 C 681.023438 339.550781 680.917969 339.421875 680.777344 339.410156 C 680.410156 339.375 679.8125 339.132812 679.328125 338.640625 C 678.847656 338.144531 678.464844 337.421875 678.460938 336.378906 L 678.464844 336.21875 C 678.480469 335.8125 678.574219 335.578125 678.675781 335.464844 C 678.777344 335.351562 678.890625 335.308594 679.070312 335.304688 C 679.355469 335.300781 679.753906 335.464844 680.0625 335.636719 C 680.21875 335.722656 680.351562 335.8125 680.449219 335.875 C 680.542969 335.941406 680.59375 335.980469 680.59375 335.980469 C 680.707031 336.066406 680.871094 336.046875 680.957031 335.933594 C 681.046875 335.816406 681.023438 335.65625 680.910156 335.570312 " fill-opacity="1" fill-rule="nonzero"/><path fill="#ebdadf" d="M 687.859375 334.183594 C 687.835938 334.160156 687.050781 333.316406 685.6875 333.3125 C 684.917969 333.3125 683.992188 333.589844 682.972656 334.398438 C 682.851562 334.496094 682.832031 334.671875 682.929688 334.792969 C 683.023438 334.914062 683.199219 334.933594 683.320312 334.839844 C 684.261719 334.09375 685.054688 333.875 685.6875 333.875 C 686.246094 333.875 686.6875 334.050781 686.996094 334.226562 C 687.148438 334.316406 687.265625 334.402344 687.34375 334.46875 L 687.429688 334.542969 L 687.453125 334.566406 C 687.558594 334.679688 687.734375 334.6875 687.847656 334.578125 C 687.960938 334.472656 687.964844 334.296875 687.859375 334.183594 " fill-opacity="1" fill-rule="nonzero"/><path fill="#ebdadf" d="M 698.78125 334.183594 C 698.757812 334.160156 697.972656 333.316406 696.609375 333.3125 C 695.84375 333.3125 694.914062 333.589844 693.894531 334.398438 C 693.773438 334.496094 693.753906 334.671875 693.851562 334.792969 C 693.945312 334.914062 694.121094 334.933594 694.242188 334.839844 C 695.1875 334.09375 695.976562 333.875 696.609375 333.875 C 697.167969 333.875 697.613281 334.050781 697.917969 334.226562 C 698.070312 334.316406 698.1875 334.402344 698.265625 334.46875 L 698.351562 334.542969 L 698.375 334.566406 C 698.480469 334.679688 698.65625 334.6875 698.769531 334.578125 C 698.882812 334.472656 698.886719 334.296875 698.78125 334.183594 " fill-opacity="1" fill-rule="nonzero"/><path fill="#211b25" d="M 686.644531 336.84375 C 686.644531 337.6875 686.167969 338.371094 685.578125 338.371094 C 684.988281 338.371094 684.507812 337.6875 684.507812 336.84375 C 684.507812 335.996094 684.988281 335.3125 685.578125 335.3125 C 686.167969 335.3125 686.644531 335.996094 686.644531 336.84375 " fill-opacity="1" fill-rule="nonzero"/><path fill="#211b25" d="M 697.550781 336.84375 C 697.550781 337.6875 697.074219 338.371094 696.484375 338.371094 C 695.890625 338.371094 695.414062 337.6875 695.414062 336.84375 C 695.414062 335.996094 695.890625 335.3125 696.484375 335.3125 C 697.074219 335.3125 697.550781 335.996094 697.550781 336.84375 " fill-opacity="1" fill-rule="nonzero"/><path fill="#ebdadf" d="M 687.410156 344.492188 C 687.835938 345.789062 689.304688 347.300781 690.964844 347.300781 C 692.703125 347.300781 694.449219 345.230469 694.519531 344.492188 L 687.410156 344.492188 " fill-opacity="1" fill-rule="nonzero"/><path fill="#f47052" d="M 689.847656 340.015625 C 690.011719 340.511719 690.570312 341.089844 691.207031 341.089844 C 691.871094 341.089844 692.539062 340.300781 692.5625 340.015625 L 689.847656 340.015625 " fill-opacity="1" fill-rule="nonzero"/><path fill="#f47052" d="M 686.992188 331.5625 L 687.003906 331.554688 C 687.152344 331.453125 688.617188 330.53125 690.9375 330.535156 C 692.085938 330.535156 693.453125 330.757812 694.984375 331.425781 C 695.125 331.488281 695.289062 331.425781 695.351562 331.28125 C 695.414062 331.140625 695.351562 330.976562 695.207031 330.914062 C 693.605469 330.214844 692.160156 329.972656 690.9375 329.972656 C 688.300781 329.972656 686.699219 331.085938 686.671875 331.105469 C 686.542969 331.191406 686.511719 331.367188 686.601562 331.492188 C 686.6875 331.621094 686.863281 331.652344 686.992188 331.5625 " fill-opacity="1" fill-rule="nonzero"/><path fill="#f47052" d="M 686.949219 329.648438 C 687.597656 329.34375 688.9375 328.84375 690.777344 328.84375 C 691.878906 328.84375 693.160156 329.019531 694.585938 329.527344 C 694.734375 329.578125 694.890625 329.503906 694.945312 329.355469 C 694.996094 329.210938 694.917969 329.050781 694.773438 329 C 693.285156 328.472656 691.9375 328.28125 690.777344 328.28125 C 688.832031 328.28125 687.414062 328.808594 686.710938 329.140625 C 686.570312 329.207031 686.511719 329.375 686.578125 329.515625 C 686.644531 329.652344 686.808594 329.710938 686.949219 329.648438 " fill-opacity="1" fill-rule="nonzero"/></svg>